<svg version="1.1" xmlns="http://www.w3.org/2000/svg" xmlns:xlink="http://www.w3.org/1999/xlink" viewBox="0 0 1000 1000" style="enable-background:new 0 0 1000 1000;" xml:space="preserve">
<style type="text/css">
<![CDATA[
	.st0{fill:none;stroke:#000000;stroke-width:5;stroke-linecap:round;stroke-linejoin:round;stroke-miterlimit:10;}
]]>
</style>
<path class="st0" d="M839,157.2V564c0,115.3-30.5,200-91.2,254c-60.8,54-141.2,81.8-241.2,82.8c-102.2,1-184.2-23.8-246-74.5
	C198.8,775.3,168,710,168,630c0-35.2,17.2-53,51.5-53.5c36.5-0.2,54.8,13,54.8,40c0,59.2,20.8,105.8,62,139.5
	c41.2,33.8,97,50.5,167,49.7c73-0.8,129.5-21,169.2-61c40-39.8,60-99.8,60-179.8V57.5C663,20.8,584,0,500,0C224.2,0,0,224.2,0,500
	s224.2,500,500,500s500-224.2,500-500c0-145-62-275.8-161-367.2 M398.2,655L313,486.5l-190.5-26.8l137.8-131.2L227.5,143l170.2,87.2
	L568,142.5l-32.2,185.2L673.5,459l-190.3,27.2l-78.4,155.7"/>
</svg>
